<?xml version="1.0" encoding="UTF-8"?>
<svg id="_레이어_2" data-name="레이어 2" xmlns="http://www.w3.org/2000/svg" viewBox="0 0 297.19 286.35">
  <defs>
    <style>
      .cls-1 {
        fill: #e60012;
      }

      .cls-2, .cls-3 {
        stroke-width: 3px;
      }

      .cls-2, .cls-3, .cls-4, .cls-5 {
        stroke-miterlimit: 10;
      }

      .cls-2, .cls-5 {
        stroke: #000;
      }

      .cls-3 {
        stroke: #fff;
      }

      .cls-3, .cls-5 {
        fill: #fff;
      }

      .cls-4 {
        stroke: #feffff;
      }

      .cls-4, .cls-5 {
        stroke-width: 12px;
      }
    </style>
  </defs>
  <g id="_레이어_1-2" data-name="레이어 1">
    <g>
      <g>
        <path class="cls-1" d="M164.77,119.15c-1.4-4.71-3.48-9.14-5.69-13.52-2.01-3.97-3.52-8.13-5.5-12.12-4.22-8.51-9.06-16.71-14.48-24.51-10.2-14.68-22.25-28.11-36.28-39.23-12.91-10.24-27.14-18.6-42.75-24C45.8.82,24.35-5.03,12.37,7.55,5.82,14.43,3.24,24.57,1.69,33.68-.04,43.93-.43,54.31.47,64.67c1.78,20.54,7.83,40.23,16.61,58.82,17.04,36.12,43.3,68.43,71.68,96.25,14.76,14.47,30.52,28.52,47.32,40.61,4.21,3.03,8.57,5.9,12.92,8.71,2.38,1.54,4.92,2.72,7.39,4.11,5.31,3,11.22,3.28,17.14,4.13,4.04.58,8.01-1,9.23-5.24,1.01-3.51-1.23-8.65-5.24-9.23s-9.18-.48-12.95-2.28c-2.51-1.19-4.98-2.6-6.89-3.74-3.94-2.34-7.69-5.1-11.48-7.68-11.72-7.98-22.56-17.6-33.08-27.08-27.03-24.37-51.44-52-70.53-83.06C23.96,108.68,9.47,71.24,16.62,35.14c1.34-6.79,3.09-17.7,11.05-19.62,6.34-1.53,13.88.56,20.03,2.16,13.83,3.6,26.66,10.04,38.37,18.17,14.34,9.96,26.99,22.74,37.3,36.81,5.58,7.62,10.6,15.66,15.01,24.01,2.21,4.18,3.86,8.46,5.84,12.72,2.13,4.6,4.64,8.85,6.09,13.74,2.74,9.23,17.22,5.3,14.46-3.99h0Z"/>
        <path class="cls-1" d="M133.92,284.24c5.3-5.04,10.4-10.41,16.11-14.99,10.63-8.52,20.61-16.1,31.12-24.89,31.69-26.52,60.16-57.18,82.64-91.93,22.89-35.37,39.59-78.62,31.17-121.27-1.88-9.56-5.11-20.33-13.37-26.3-7.59-5.48-16.93-5.13-25.75-3.79-16.42,2.49-32.28,9.11-46.32,17.86-17.24,10.74-32.24,24.84-44.68,40.84-13.65,17.55-26.96,38.15-29.43,60.67-.44,4.03,3.76,7.5,7.5,7.5,4.42,0,7.06-3.46,7.5-7.5,1.92-17.54,13.56-34.56,23.81-48.42s21.66-25.32,35.04-34.91c12.36-8.86,26.03-15.86,40.81-19.6,6.14-1.56,14.55-4.01,20.74-1.61,7.46,2.9,9,14.98,10.15,21.76,6.51,38.37-10.5,77.25-31.06,108.63-21.06,32.14-47.53,60.45-76.77,85.27-10.79,9.16-22.07,17.75-33.12,26.6-5.92,4.74-11.21,10.24-16.7,15.46-7.01,6.67,3.61,17.26,10.61,10.61h0Z"/>
      </g>
      <g>
        <path class="cls-4" d="M264.11,208.11c-1.04-.32-2.13-.7-3.29-1.12-2.24-.82-4.45-1.75-6.61-2.8-2.47-1.19-5.34.57-5.42,3.3-.14,4.83-.31,8.66-.52,11.49-.3,4.04-.82,6.72-1.57,8.07-.75,1.34-1.79,2.02-3.14,2.02h-12.1c-1.94,0-3.18-.37-3.7-1.12-.53-.75-.78-2.69-.78-5.83v-65.3c0-2.07-1.68-3.74-3.74-3.74h-12.69c-2.07,0-3.74,1.68-3.74,3.74v65.53c0,6.43.6,11.51,1.79,15.24,1.19,3.73,3.32,6.39,6.39,7.96,3.06,1.57,7.43,2.35,13.11,2.35h17.49c4.93,0,8.86-1.12,11.77-3.36,2.91-2.24,5.12-6.17,6.61-11.77,1.34-5.05,2.27-12,2.76-20.86.1-1.72-.98-3.28-2.62-3.8Z"/>
        <path class="cls-4" d="M238.52,139.29c2.75,4.55,5.02,8.75,6.8,12.58.91,1.96,3.31,2.72,5.2,1.67l11.07-6.17c1.73-.96,2.43-3.11,1.56-4.88-1.93-3.95-4.39-8.27-7.37-12.95-3.81-5.98-8.04-12.07-12.67-18.27-3.95-5.29-7.85-10.17-11.69-14.64-1.15-1.34-3.06-1.71-4.62-.88l-9.73,5.2c-2.06,1.1-2.62,3.8-1.16,5.63,3.52,4.4,7.02,9.1,10.49,14.11.1.14.19.27.28.41-7.38.48-14.76.97-22.14,1.49-8.67.62-17.03,1.18-25.09,1.7.26-.53.51-1.04.77-1.58,2.61-5.45,5.27-11.21,7.96-17.26,2.08-4.67,4.06-9.23,5.96-13.68.51-1.19.33-2.47-.3-3.47h63.23c2.07,0,3.74-1.68,3.74-3.74v-11.57c0-2.07-1.68-3.74-3.74-3.74h-48.94v-24.28c0-2.07-1.68-3.74-3.74-3.74h-14.26c-2.07,0-3.74,1.68-3.74,3.74v24.28h-44.9c-2.07,0-3.74,1.68-3.74,3.74v11.57c0,2.07,1.68,3.74,3.74,3.74h30.21c-.96,3.16-2.04,6.49-3.24,9.98-2.09,6.05-4.3,11.96-6.61,17.71-1.38,3.44-2.75,6.63-4.11,9.61-5.4.31-10.48.59-15.22.84-2.12.11-3.72,1.96-3.52,4.08l1.1,11.94c.19,2.04,1.98,3.55,4.02,3.39,8.14-.66,17.04-1.34,26.69-2.06,11.13-.82,22.79-1.68,34.97-2.58,10.84-.8,21.65-1.6,32.43-2.39.1.16.2.33.3.49Z"/>
        <path class="cls-2" d="M264.11,208.11c-1.04-.32-2.13-.7-3.29-1.12-2.24-.82-4.45-1.75-6.61-2.8-2.47-1.19-5.34.57-5.42,3.3-.14,4.83-.31,8.66-.52,11.49-.3,4.04-.82,6.72-1.57,8.07-.75,1.34-1.79,2.02-3.14,2.02h-12.1c-1.94,0-3.18-.37-3.7-1.12-.53-.75-.78-2.69-.78-5.83v-65.3c0-2.07-1.68-3.74-3.74-3.74h-12.69c-2.07,0-3.74,1.68-3.74,3.74v65.53c0,6.43.6,11.51,1.79,15.24,1.19,3.73,3.32,6.39,6.39,7.96,3.06,1.57,7.43,2.35,13.11,2.35h17.49c4.93,0,8.86-1.12,11.77-3.36,2.91-2.24,5.12-6.17,6.61-11.77,1.34-5.05,2.27-12,2.76-20.86.1-1.72-.98-3.28-2.62-3.8Z"/>
        <path class="cls-2" d="M238.52,139.29c2.75,4.55,5.02,8.75,6.8,12.58.91,1.96,3.31,2.72,5.2,1.67l11.07-6.17c1.73-.96,2.43-3.11,1.56-4.88-1.93-3.95-4.39-8.27-7.37-12.95-3.81-5.98-8.04-12.07-12.67-18.27-3.95-5.29-7.85-10.17-11.69-14.64-1.15-1.34-3.06-1.71-4.62-.88l-9.73,5.2c-2.06,1.1-2.62,3.8-1.16,5.63,3.52,4.4,7.02,9.1,10.49,14.11.1.14.19.27.28.41-7.38.48-14.76.97-22.14,1.49-8.67.62-17.03,1.18-25.09,1.7.26-.53.51-1.04.77-1.58,2.61-5.45,5.27-11.21,7.96-17.26,2.08-4.67,4.06-9.23,5.96-13.68.51-1.19.33-2.47-.3-3.47h63.23c2.07,0,3.74-1.68,3.74-3.74v-11.57c0-2.07-1.68-3.74-3.74-3.74h-48.94v-24.28c0-2.07-1.68-3.74-3.74-3.74h-14.26c-2.07,0-3.74,1.68-3.74,3.74v24.28h-44.9c-2.07,0-3.74,1.68-3.74,3.74v11.57c0,2.07,1.68,3.74,3.74,3.74h30.21c-.96,3.16-2.04,6.49-3.24,9.98-2.09,6.05-4.3,11.96-6.61,17.71-1.38,3.44-2.75,6.63-4.11,9.61-5.4.31-10.48.59-15.22.84-2.12.11-3.72,1.96-3.52,4.08l1.1,11.94c.19,2.04,1.98,3.55,4.02,3.39,8.14-.66,17.04-1.34,26.69-2.06,11.13-.82,22.79-1.68,34.97-2.58,10.84-.8,21.65-1.6,32.43-2.39.1.16.2.33.3.49Z"/>
        <path class="cls-5" d="M90.8,168.91l-10.49-1.84c-2.12-.37-4.09,1.12-4.36,3.25-1.04,8.24-2.49,16.42-4.36,24.54-1.8,7.82-4.09,14.77-6.87,20.83-.87,1.91.03,4.16,1.96,4.96.56.23,1.15.49,1.77.77,2.16.97,4.22,1.98,6.17,3.03.42.23.82.44,1.2.66,1.95,1.07,4.38.22,5.25-1.83,2.72-6.38,5.17-13.84,7.33-22.36,2.32-9.16,4.14-18.43,5.46-27.82.28-1.99-1.09-3.84-3.07-4.19Z"/>
        <path class="cls-5" d="M134.73,150.77c1,2.9,1.85,5.63,2.53,8.18.59,2.23,3.04,3.39,5.14,2.45l8.45-3.8c1.68-.76,2.58-2.63,2.08-4.4-.99-3.5-2.29-7.28-3.89-11.35-2.09-5.3-4.52-10.8-7.29-16.48-2.25-4.62-4.57-8.99-6.97-13.11-.94-1.61-2.91-2.3-4.64-1.61l-7.57,3.03c-2.11.84-2.97,3.34-1.86,5.32,2.19,3.89,4.27,8.03,6.24,12.43.35.78.68,1.55,1.02,2.33-9.19.45-18.28.87-27.25,1.26-.32.01-.63.03-.95.04,2.5-3.23,5.06-6.64,7.67-10.24,6.35-8.74,12.67-17.82,18.94-27.24,5.4-8.1,10.36-15.87,14.87-23.31,1.16-1.91.4-4.41-1.63-5.35l-10.42-4.81c-1.82-.84-3.98-.1-4.9,1.69-2.59,5.08-5.49,10.51-8.69,16.3-3.54,6.4-7.31,12.8-11.28,19.2-1.28-1.74-2.7-3.53-4.3-5.41-1.98-2.31-4.08-4.63-6.27-6.94,2.07-3.21,4.23-6.71,6.49-10.54,3.21-5.45,6.42-11.21,9.64-17.26,2.5-4.72,4.89-9.27,7.17-13.68,1.02-1.98.11-4.4-1.96-5.21l-10.95-4.27c-1.95-.76-4.13.22-4.86,2.18-1.54,4.09-3.35,8.47-5.42,13.13-2.69,6.05-5.49,11.99-8.41,17.82-1.12,2.25-2.24,4.39-3.36,6.44-1.02-.92-2.05-1.83-3.07-2.71-1.66-1.43-4.18-1.13-5.47.63l-5.97,8.17c-1.11,1.52-.92,3.64.46,4.93,3.22,3,6.44,6.26,9.67,9.78,4.04,4.41,7.77,8.82,11.21,13.23,1.74,2.23,3.27,4.32,4.63,6.3-1.28,1.88-2.55,3.74-3.84,5.58-3.13,4.46-6.16,8.57-9.11,12.36-4.12.15-8.02.29-11.68.41-2.16.07-3.8,1.94-3.6,4.09l1.07,11.23c.19,2.02,1.95,3.52,3.98,3.38,9.27-.64,19.5-1.31,30.67-2.01v88.41c0,2.07,1.68,3.74,3.74,3.74h11.12c2.07,0,3.74-1.68,3.74-3.74v-89.58c4.99-.32,10.01-.64,15.06-.97Z"/>
        <path class="cls-3" d="M90.8,168.91l-10.49-1.84c-2.12-.37-4.09,1.12-4.36,3.25-1.04,8.24-2.49,16.42-4.36,24.54-1.8,7.82-4.09,14.77-6.87,20.83-.87,1.91.03,4.16,1.96,4.96.56.23,1.15.49,1.77.77,2.16.97,4.22,1.98,6.17,3.03.42.23.82.44,1.2.66,1.95,1.07,4.38.22,5.25-1.83,2.72-6.38,5.17-13.84,7.33-22.36,2.32-9.16,4.14-18.43,5.46-27.82.28-1.99-1.09-3.84-3.07-4.19Z"/>
        <path class="cls-3" d="M134.73,150.77c1,2.9,1.85,5.63,2.53,8.18.59,2.23,3.04,3.39,5.14,2.45l8.45-3.8c1.68-.76,2.58-2.63,2.08-4.4-.99-3.5-2.29-7.28-3.89-11.35-2.09-5.3-4.52-10.8-7.29-16.48-2.25-4.62-4.57-8.99-6.97-13.11-.94-1.61-2.91-2.3-4.64-1.61l-7.57,3.03c-2.11.84-2.97,3.34-1.86,5.32,2.19,3.89,4.27,8.03,6.24,12.43.35.78.68,1.55,1.02,2.33-9.19.45-18.28.87-27.25,1.26-.32.01-.63.03-.95.04,2.5-3.23,5.06-6.64,7.67-10.24,6.35-8.74,12.67-17.82,18.94-27.24,5.4-8.1,10.36-15.87,14.87-23.31,1.16-1.91.4-4.41-1.63-5.35l-10.42-4.81c-1.82-.84-3.98-.1-4.9,1.69-2.59,5.08-5.49,10.51-8.69,16.3-3.54,6.4-7.31,12.8-11.28,19.2-1.28-1.74-2.7-3.53-4.3-5.41-1.98-2.31-4.08-4.63-6.27-6.94,2.07-3.21,4.23-6.71,6.49-10.54,3.21-5.45,6.42-11.21,9.64-17.26,2.5-4.72,4.89-9.27,7.17-13.68,1.02-1.98.11-4.4-1.96-5.21l-10.95-4.27c-1.95-.76-4.13.22-4.86,2.18-1.54,4.09-3.35,8.47-5.42,13.13-2.69,6.05-5.49,11.99-8.41,17.82-1.12,2.25-2.24,4.39-3.36,6.44-1.02-.92-2.05-1.83-3.07-2.71-1.66-1.43-4.18-1.13-5.47.63l-5.97,8.17c-1.11,1.52-.92,3.64.46,4.93,3.22,3,6.44,6.26,9.67,9.78,4.04,4.41,7.77,8.82,11.21,13.23,1.74,2.23,3.27,4.32,4.63,6.3-1.28,1.88-2.55,3.74-3.84,5.58-3.13,4.46-6.16,8.57-9.11,12.36-4.12.15-8.02.29-11.68.41-2.16.07-3.8,1.94-3.6,4.09l1.07,11.23c.19,2.02,1.95,3.52,3.98,3.38,9.27-.64,19.5-1.31,30.67-2.01v88.41c0,2.07,1.68,3.74,3.74,3.74h11.12c2.07,0,3.74-1.68,3.74-3.74v-89.58c4.99-.32,10.01-.64,15.06-.97Z"/>
        <path class="cls-4" d="M181.78,153.3h-12.65c-1.99,0-3.64,1.56-3.74,3.54-.46,9.07-1.15,17.34-2.08,24.82-1.05,8.45-2.95,15.96-5.72,22.53-2.77,6.58-6.8,12.33-12.1,17.26-4.25,3.95-9.58,7.47-15.98,10.56-2.25,1.08-2.82,4.03-1.14,5.87,1.02,1.12,2.06,2.37,3.11,3.75,1.47,1.94,2.69,3.73,3.66,5.38.96,1.64,3.04,2.27,4.77,1.48,8.53-3.91,15.59-8.59,21.16-14.04,6.28-6.13,11.1-13.19,14.46-21.18,3.36-7.99,5.75-16.96,7.17-26.9,1.26-8.84,2.2-18.54,2.81-29.09.13-2.15-1.58-3.97-3.74-3.97Z"/>
        <path class="cls-2" d="M181.78,153.3h-12.65c-1.99,0-3.64,1.56-3.74,3.54-.46,9.07-1.15,17.34-2.08,24.82-1.05,8.45-2.95,15.96-5.72,22.53-2.77,6.58-6.8,12.33-12.1,17.26-4.25,3.95-9.58,7.47-15.98,10.56-2.25,1.08-2.82,4.03-1.14,5.87,1.02,1.12,2.06,2.37,3.11,3.75,1.47,1.94,2.69,3.73,3.66,5.38.96,1.64,3.04,2.27,4.77,1.48,8.53-3.91,15.59-8.59,21.16-14.04,6.28-6.13,11.1-13.19,14.46-21.18,3.36-7.99,5.75-16.96,7.17-26.9,1.26-8.84,2.2-18.54,2.81-29.09.13-2.15-1.58-3.97-3.74-3.97Z"/>
        <path class="cls-5" d="M147.59,185.67c-2.2-6.42-4.54-12.41-7-17.98-.78-1.76-2.75-2.66-4.58-2.06l-8.16,2.64c-2.08.67-3.14,2.97-2.3,4.99,2.25,5.43,4.41,11.32,6.47,17.68,1.95,6.02,3.46,11.4,4.53,16.14.49,2.19,2.8,3.44,4.91,2.68l8.88-3.21c1.82-.66,2.85-2.6,2.35-4.47-1.28-4.79-2.98-10.26-5.09-16.41Z"/>
        <path class="cls-3" d="M147.86,185.67c-2.2-6.42-4.54-12.41-7-17.98-.78-1.76-2.75-2.66-4.58-2.06l-8.16,2.64c-2.08.67-3.14,2.97-2.3,4.99,2.25,5.43,4.41,11.32,6.47,17.68,1.95,6.02,3.46,11.4,4.53,16.14.49,2.19,2.8,3.44,4.91,2.68l8.88-3.21c1.82-.66,2.85-2.6,2.35-4.47-1.28-4.79-2.98-10.26-5.09-16.41Z"/>
      </g>
    </g>
  </g>
</svg>